<?xml version="1.0" encoding="UTF-8"?>
<svg width="415px" height="218px" viewBox="0 0 415 218" version="1.1" xmlns="http://www.w3.org/2000/svg" xmlns:xlink="http://www.w3.org/1999/xlink">
    <title>SVG Nomenclature</title>
    <g id="Page-1" stroke="none" stroke-width="1" fill="none" fill-rule="evenodd">
        <path d="M0.2578125,72.5742187 C106.46875,47.5377604 173.739583,50.2617188 202.070312,80.7460938 C230.401042,111.230469 293.226563,108.50651 390.546875,72.5742187" id="Path" stroke="#979797"></path>
        <line x1="200.496094" y1="78.6866817" x2="140.277344" y2="20.546875" id="Path-2" stroke="#FFB4B4"></line>
        <line x1="336.5" y1="101.5" x2="390" y2="73" id="Path-2-Copy" stroke="#FF0000"></line>
        <line x1="200.496094" y1="78.6866817" x2="254.03125" y2="132.769531" id="Path-3" stroke="#2F00FF"></line>
        <circle id="Oval" fill="#DADADA" cx="200" cy="79" r="5"></circle>
        <circle id="Oval" fill="#000000" cx="387" cy="73" r="5"></circle>
        <text id="1" font-family="Georgia" font-size="26" font-weight="normal" letter-spacing="1" fill="#FFBFBF">
            <tspan x="150" y="23">1</tspan>
        </text>
        <text id="1-copy" font-family="Georgia" font-size="26" font-weight="normal" letter-spacing="1" fill="#FF0000">
            <tspan x="356" y="115">1</tspan>
        </text>
        <text id="P" font-family="Georgia" font-size="26" font-weight="normal" letter-spacing="1" fill="#000000">
            <tspan x="398" y="77">P</tspan>
        </text>
        <text id="2" font-family="Georgia" font-size="26" font-weight="normal" letter-spacing="1" fill="#2F00FF">
            <tspan x="257" y="140">2</tspan>
        </text>
        <path d="M195,163 C195,163 195.438657,172.534128 211.610854,172.777344 C240.773327,173.215922 293.9476,167.36475 295.294448,190.675781 C294.870068,168.961698 325.232149,171.157133 384.935073,170.863281 C397.104344,170.803385 401.707208,168.182292 398.743667,163" id="Path-4" stroke="#979797"></path>
        <text id="Bezier-curve" font-family="Georgia" font-size="26" font-weight="normal" letter-spacing="1" fill="#989898">
            <tspan x="215" y="211">Bezier curve</tspan>
        </text>
    </g>
</svg>